<mxfile host="app.diagrams.net" modified="2023-10-16T10:14:46.183Z" agent="Mozilla/5.0 (Macintosh; Intel Mac OS X 10_15_7) AppleWebKit/537.36 (KHTML, like Gecko) Chrome/116.0.0.0 Safari/537.36" etag="tBmuFY1OxtgwcEuFtg57" version="21.8.0" type="github">
  <diagram name="第 1 页" id="Y1HsQ0itf-nCOPws9BB6">
    <mxGraphModel dx="1194" dy="760" grid="1" gridSize="10" guides="1" tooltips="1" connect="1" arrows="1" fold="1" page="1" pageScale="1" pageWidth="827" pageHeight="1169" math="0" shadow="0">
      <root>
        <mxCell id="0" />
        <mxCell id="1" parent="0" />
        <mxCell id="sFtv7r6JDpLOcGtbxZpa-3" value="" style="strokeWidth=2;html=1;shape=mxgraph.flowchart.sequential_data;whiteSpace=wrap;" vertex="1" parent="1">
          <mxGeometry x="270" y="350" width="60" height="60" as="geometry" />
        </mxCell>
        <mxCell id="sFtv7r6JDpLOcGtbxZpa-4" value="老师1" style="rounded=1;whiteSpace=wrap;html=1;" vertex="1" parent="1">
          <mxGeometry x="130" y="120" width="120" height="60" as="geometry" />
        </mxCell>
        <mxCell id="sFtv7r6JDpLOcGtbxZpa-5" value="老师2" style="rounded=1;whiteSpace=wrap;html=1;" vertex="1" parent="1">
          <mxGeometry x="370" y="120" width="120" height="60" as="geometry" />
        </mxCell>
        <mxCell id="sFtv7r6JDpLOcGtbxZpa-6" value="后端判题服务" style="rounded=0;whiteSpace=wrap;html=1;" vertex="1" parent="1">
          <mxGeometry x="140" y="240" width="320" height="60" as="geometry" />
        </mxCell>
        <mxCell id="sFtv7r6JDpLOcGtbxZpa-7" value="后端判题服务" style="rounded=0;whiteSpace=wrap;html=1;" vertex="1" parent="1">
          <mxGeometry x="130" y="450" width="340" height="60" as="geometry" />
        </mxCell>
        <mxCell id="sFtv7r6JDpLOcGtbxZpa-9" value="后端判题服务" style="rounded=0;whiteSpace=wrap;html=1;" vertex="1" parent="1">
          <mxGeometry x="560" y="320" width="340" height="60" as="geometry" />
        </mxCell>
      </root>
    </mxGraphModel>
  </diagram>
</mxfile>
